<?xml version="1.0" encoding="UTF-8"?>
<svg xmlns="http://www.w3.org/2000/svg" width="1600" height="1880" viewBox="0 0 1600 1880" style="max-width:100%;height:auto;display:block" role="img" aria-labelledby="chart-title chart-desc">
<title id="chart-title">Attention JIT cycle/tile 共享横轴分解</title>
<desc id="chart-desc">H=1, M=N=40960 的墙钟、ATT物理时间线、MFMA shadow和no-issue原因均绘制在同一个cycle/tile横轴上。</desc>
<style>
text { font-family: 'Noto Sans CJK SC', 'Microsoft YaHei', 'PingFang SC', 'DejaVu Sans', sans-serif; fill: #20262d; }
.title { font-size: 30px; font-weight: 700; }
.subtitle { font-size: 17px; fill: #66717d; }
.row-title { font-size: 18px; font-weight: 700; }
.row-subtitle { font-size: 14px; fill: #66717d; }
.axis { font-size: 13px; fill: #66717d; }
.segment { font-size: 13px; font-weight: 700; }
.total { font-size: 14px; font-weight: 700; }
.legend { font-size: 14px; }
.note { font-size: 14px; fill: #66717d; }
.explain-title { font-size: 20px; font-weight: 700; }
.explain-head { font-size: 16px; font-weight: 700; }
.explain { font-size: 14px; }
.example { font-size: 13px; font-weight: 700; }
</style>
<rect width="100%" height="100%" fill="#ffffff"/>
<text x="44.0" y="51.0" text-anchor="start" class="title">Attention JIT 时间消耗：共享 cycle/tile 横轴</text>
<text x="44.0" y="82.0" text-anchor="start" class="subtitle">gfx942 · H=1, M=N=40960, D=128 · 彩色段是聚合预算，不表示真实时间先后顺序</text>
<line x1="300.000" y1="135.000" x2="300.000" y2="890.000" stroke="#dfe4e8" stroke-width="1" stroke-dasharray="4 6"/>
<text x="300.0" y="125.0" text-anchor="middle" class="axis">0</text>
<line x1="450.669" y1="135.000" x2="450.669" y2="890.000" stroke="#dfe4e8" stroke-width="1" stroke-dasharray="4 6"/>
<text x="450.7" y="125.0" text-anchor="middle" class="axis">200</text>
<line x1="601.339" y1="135.000" x2="601.339" y2="890.000" stroke="#dfe4e8" stroke-width="1" stroke-dasharray="4 6"/>
<text x="601.3" y="125.0" text-anchor="middle" class="axis">400</text>
<line x1="752.008" y1="135.000" x2="752.008" y2="890.000" stroke="#dfe4e8" stroke-width="1" stroke-dasharray="4 6"/>
<text x="752.0" y="125.0" text-anchor="middle" class="axis">600</text>
<line x1="902.677" y1="135.000" x2="902.677" y2="890.000" stroke="#dfe4e8" stroke-width="1" stroke-dasharray="4 6"/>
<text x="902.7" y="125.0" text-anchor="middle" class="axis">800</text>
<line x1="1053.347" y1="135.000" x2="1053.347" y2="890.000" stroke="#dfe4e8" stroke-width="1" stroke-dasharray="4 6"/>
<text x="1053.3" y="125.0" text-anchor="middle" class="axis">1000</text>
<line x1="1204.016" y1="135.000" x2="1204.016" y2="890.000" stroke="#dfe4e8" stroke-width="1" stroke-dasharray="4 6"/>
<text x="1204.0" y="125.0" text-anchor="middle" class="axis">1200</text>
<line x1="1354.685" y1="135.000" x2="1354.685" y2="890.000" stroke="#dfe4e8" stroke-width="1" stroke-dasharray="4 6"/>
<text x="1354.7" y="125.0" text-anchor="middle" class="axis">1400</text>
<line x1="1505.355" y1="135.000" x2="1505.355" y2="890.000" stroke="#dfe4e8" stroke-width="1" stroke-dasharray="4 6"/>
<text x="1505.4" y="125.0" text-anchor="middle" class="axis">1600</text>
<line x1="300.000" y1="135.000" x2="1510.000" y2="135.000" stroke="#3d4650" stroke-width="1.5"/>
<text x="1510.0" y="101.0" text-anchor="end" class="axis">cycle / BN32 tile</text>
<text x="276.0" y="201.0" text-anchor="end" class="row-title">墙钟闭合</text>
<text x="276.0" y="223.0" text-anchor="end" class="row-subtitle">实测 = perfect + 两类残差 + 边界</text>
<rect x="300.000" y="180.000" width="865.161" height="50.000" rx="2" fill="#dce8d8">
<title>完美模型: 1148.423 cycle/tile</title>
</rect>
<text x="732.6" y="211.0" text-anchor="middle" class="segment" fill="#20262d">perfect 1148.4</text>
<rect x="1165.161" y="180.000" width="152.099" height="50.000" rx="2" fill="#b9445b">
<title>shadow内残差: 201.897 cycle/tile</title>
</rect>
<text x="1241.2" y="211.0" text-anchor="middle" class="segment" fill="#ffffff">shadow residual 201.9</text>
<rect x="1317.260" y="180.000" width="181.028" height="50.000" rx="2" fill="#d57a2a">
<title>shadow外残差: 240.299 cycle/tile</title>
</rect>
<text x="1407.8" y="211.0" text-anchor="middle" class="segment" fill="#ffffff">outside residual 240.3</text>
<rect x="1498.288" y="180.000" width="11.712" height="50.000" rx="2" fill="#343a40">
<title>ATT外边界: 15.546 cycle/tile</title>
</rect>
<rect x="300.000" y="180.000" width="1210.000" height="50.000" rx="2" fill="none" stroke="#3d4650" stroke-width="1">
</rect>
<text x="1519.0" y="211.0" text-anchor="start" class="total">Σ 1606.166</text>
<text x="276.0" y="336.0" text-anchor="end" class="row-title">ATT物理时间线</text>
<text x="276.0" y="358.0" text-anchor="end" class="row-subtitle">S=shadow内 / O=shadow外</text>
<rect x="300.000" y="315.000" width="192.431" height="50.000" rx="2" fill="#167d75">
<title>shadow/non-MFMA: 255.435 cycle/tile</title>
</rect>
<text x="396.2" y="346.0" text-anchor="middle" class="segment" fill="#ffffff">S:non-MFMA 255.4</text>
<rect x="492.431" y="315.000" width="65.483" height="50.000" rx="2" fill="#315c9b">
<title>shadow/MFMA-only: 86.923 cycle/tile</title>
</rect>
<rect x="557.914" y="315.000" width="252.633" height="50.000" rx="2" fill="#b9445b">
<title>shadow/no-issue: 335.348 cycle/tile</title>
</rect>
<text x="684.2" y="346.0" text-anchor="middle" class="segment" fill="#ffffff">S:idle 335.3</text>
<rect x="810.547" y="315.000" width="287.727" height="50.000" rx="2" fill="#7dbbb4">
<title>outside/non-MFMA: 381.932 cycle/tile</title>
</rect>
<text x="954.4" y="346.0" text-anchor="middle" class="segment" fill="#20262d">O:non-MFMA 381.9</text>
<rect x="1098.275" y="315.000" width="99.150" height="50.000" rx="2" fill="#7f9cc2">
<title>outside/MFMA-only: 131.612 cycle/tile</title>
</rect>
<text x="1147.8" y="346.0" text-anchor="middle" class="segment" fill="#20262d">O:MFMA 131.6</text>
<rect x="1197.424" y="315.000" width="300.864" height="50.000" rx="2" fill="#d57a2a">
<title>outside/no-issue: 399.370 cycle/tile</title>
</rect>
<text x="1347.9" y="346.0" text-anchor="middle" class="segment" fill="#ffffff">O:idle 399.4</text>
<rect x="1498.288" y="315.000" width="11.712" height="50.000" rx="2" fill="#343a40">
<title>ATT外边界: 15.546 cycle/tile</title>
</rect>
<rect x="300.000" y="315.000" width="1210.000" height="50.000" rx="2" fill="none" stroke="#3d4650" stroke-width="1">
</rect>
<text x="1519.0" y="346.0" text-anchor="start" class="total">Σ 1606.166</text>
<text x="276.0" y="471.0" text-anchor="end" class="row-title">MFMA逻辑shadow</text>
<text x="276.0" y="493.0" text-anchor="end" class="row-subtitle">64 × 12 = 768；alias不是独立物理机会</text>
<rect x="300.000" y="450.000" width="68.023" height="50.000" rx="2" fill="#9aa1a9">
<title>resident shadow重叠: 90.294 cycle/tile</title>
</rect>
<text x="334.0" y="481.0" text-anchor="middle" class="segment" fill="#20262d">alias 90.3</text>
<rect x="368.023" y="450.000" width="192.431" height="50.000" rx="2" fill="#167d75">
<title>已隐藏non-MFMA: 255.435 cycle/tile</title>
</rect>
<text x="464.2" y="481.0" text-anchor="middle" class="segment" fill="#ffffff">hidden 255.4</text>
<rect x="560.454" y="450.000" width="65.483" height="50.000" rx="2" fill="#315c9b">
<title>MFMA-only: 86.923 cycle/tile</title>
</rect>
<rect x="625.937" y="450.000" width="252.633" height="50.000" rx="2" fill="#b9445b">
<title>no-issue: 335.348 cycle/tile</title>
</rect>
<text x="752.3" y="481.0" text-anchor="middle" class="segment" fill="#ffffff">idle 335.3</text>
<rect x="300.000" y="450.000" width="578.570" height="50.000" rx="2" fill="none" stroke="#3d4650" stroke-width="1">
</rect>
<text x="887.6" y="481.0" text-anchor="start" class="total">Σ 768.000</text>
<text x="276.0" y="621.0" text-anchor="end" class="row-title">shadow内 no-issue</text>
<text x="276.0" y="643.0" text-anchor="end" class="row-subtitle">A ∩ B = 335.348；颜色=阻塞PC原因</text>
<rect x="300.000" y="600.000" width="175.540" height="50.000" rx="2" fill="#315c9b">
<title>MFMA: 233.014 cycle/tile</title>
</rect>
<text x="387.8" y="631.0" text-anchor="middle" class="segment" fill="#ffffff">MFMA 233.0</text>
<rect x="475.540" y="600.000" width="21.820" height="50.000" rx="2" fill="#6c737d">
<title>scheduler/ready: 28.964 cycle/tile</title>
</rect>
<rect x="497.360" y="600.000" width="15.870" height="50.000" rx="2" fill="#d99c24">
<title>LDS/SMEM-wait: 21.067 cycle/tile</title>
</rect>
<rect x="513.230" y="600.000" width="15.625" height="50.000" rx="2" fill="#a45ab5">
<title>TRANS: 20.740 cycle/tile</title>
</rect>
<rect x="528.855" y="600.000" width="8.915" height="50.000" rx="2" fill="#4b9ccb">
<title>VMEM-load: 11.834 cycle/tile</title>
</rect>
<rect x="537.770" y="600.000" width="7.975" height="50.000" rx="2" fill="#158f75">
<title>LDS/crosslane: 10.587 cycle/tile</title>
</rect>
<rect x="545.745" y="600.000" width="3.987" height="50.000" rx="2" fill="#c65d2e">
<title>barrier: 5.293 cycle/tile</title>
</rect>
<rect x="549.733" y="600.000" width="2.900" height="50.000" rx="2" fill="#aab0b6">
<title>other: 3.850 cycle/tile</title>
</rect>
<rect x="300.000" y="600.000" width="252.633" height="50.000" rx="2" fill="none" stroke="#3d4650" stroke-width="1">
</rect>
<text x="561.6" y="631.0" text-anchor="start" class="total">Σ 335.348</text>
<text x="276.0" y="771.0" text-anchor="end" class="row-title">shadow外 no-issue</text>
<text x="276.0" y="793.0" text-anchor="end" class="row-subtitle">B \ A = 399.370；颜色=阻塞PC原因</text>
<rect x="300.000" y="750.000" width="77.291" height="50.000" rx="2" fill="#a45ab5">
<title>TRANS: 102.596 cycle/tile</title>
</rect>
<text x="338.6" y="781.0" text-anchor="middle" class="segment" fill="#ffffff">TRANS 102.6</text>
<rect x="377.291" y="750.000" width="55.427" height="50.000" rx="2" fill="#d99c24">
<title>LDS/SMEM-wait: 73.575 cycle/tile</title>
</rect>
<rect x="432.718" y="750.000" width="52.631" height="50.000" rx="2" fill="#4b9ccb">
<title>VMEM-load: 69.863 cycle/tile</title>
</rect>
<rect x="485.349" y="750.000" width="32.678" height="50.000" rx="2" fill="#6c737d">
<title>scheduler/ready: 43.377 cycle/tile</title>
</rect>
<rect x="518.027" y="750.000" width="28.198" height="50.000" rx="2" fill="#c45c8a">
<title>VALU: 37.430 cycle/tile</title>
</rect>
<rect x="546.225" y="750.000" width="25.341" height="50.000" rx="2" fill="#158f75">
<title>LDS/crosslane: 33.638 cycle/tile</title>
</rect>
<rect x="571.566" y="750.000" width="14.607" height="50.000" rx="2" fill="#315c9b">
<title>MFMA: 19.390 cycle/tile</title>
</rect>
<rect x="586.173" y="750.000" width="12.765" height="50.000" rx="2" fill="#c65d2e">
<title>barrier: 16.945 cycle/tile</title>
</rect>
<rect x="598.938" y="750.000" width="1.925" height="50.000" rx="2" fill="#aab0b6">
<title>other: 2.556 cycle/tile</title>
</rect>
<rect x="300.000" y="750.000" width="300.864" height="50.000" rx="2" fill="none" stroke="#3d4650" stroke-width="1">
</rect>
<text x="609.9" y="781.0" text-anchor="start" class="total">Σ 399.370</text>
<text x="44.0" y="924.0" text-anchor="start" class="row-title">状态颜色</text>
<rect x="170.000" y="910.000" width="18.000" height="18.000" rx="2" fill="#167d75">
</rect>
<text x="197.0" y="924.0" text-anchor="start" class="legend">shadow: non-MFMA issue</text>
<rect x="500.000" y="910.000" width="18.000" height="18.000" rx="2" fill="#315c9b">
</rect>
<text x="527.0" y="924.0" text-anchor="start" class="legend">shadow: MFMA-only</text>
<rect x="830.000" y="910.000" width="18.000" height="18.000" rx="2" fill="#b9445b">
</rect>
<text x="857.0" y="924.0" text-anchor="start" class="legend">shadow: no issue</text>
<rect x="1160.000" y="910.000" width="18.000" height="18.000" rx="2" fill="#7dbbb4">
</rect>
<text x="1187.0" y="924.0" text-anchor="start" class="legend">outside: non-MFMA issue</text>
<rect x="170.000" y="940.000" width="18.000" height="18.000" rx="2" fill="#7f9cc2">
</rect>
<text x="197.0" y="954.0" text-anchor="start" class="legend">outside: MFMA-only</text>
<rect x="500.000" y="940.000" width="18.000" height="18.000" rx="2" fill="#d57a2a">
</rect>
<text x="527.0" y="954.0" text-anchor="start" class="legend">outside: no issue</text>
<rect x="830.000" y="940.000" width="18.000" height="18.000" rx="2" fill="#9aa1a9">
</rect>
<text x="857.0" y="954.0" text-anchor="start" class="legend">resident shadow alias</text>
<rect x="1160.000" y="940.000" width="18.000" height="18.000" rx="2" fill="#343a40">
</rect>
<text x="1187.0" y="954.0" text-anchor="start" class="legend">ATT外墙钟边界</text>
<text x="44.0" y="1007.0" text-anchor="start" class="row-title">阻塞类别</text>
<rect x="170.000" y="993.000" width="18.000" height="18.000" rx="2" fill="#315c9b">
</rect>
<text x="197.0" y="1007.0" text-anchor="start" class="legend">MFMA</text>
<rect x="425.000" y="993.000" width="18.000" height="18.000" rx="2" fill="#a45ab5">
</rect>
<text x="452.0" y="1007.0" text-anchor="start" class="legend">TRANS</text>
<rect x="680.000" y="993.000" width="18.000" height="18.000" rx="2" fill="#d99c24">
</rect>
<text x="707.0" y="1007.0" text-anchor="start" class="legend">LDS wait</text>
<rect x="935.000" y="993.000" width="18.000" height="18.000" rx="2" fill="#4b9ccb">
</rect>
<text x="962.0" y="1007.0" text-anchor="start" class="legend">VMEM load</text>
<rect x="1190.000" y="993.000" width="18.000" height="18.000" rx="2" fill="#6c737d">
</rect>
<text x="1217.0" y="1007.0" text-anchor="start" class="legend">scheduler</text>
<rect x="170.000" y="1023.000" width="18.000" height="18.000" rx="2" fill="#158f75">
</rect>
<text x="197.0" y="1037.0" text-anchor="start" class="legend">LDS/crosslane</text>
<rect x="425.000" y="1023.000" width="18.000" height="18.000" rx="2" fill="#c45c8a">
</rect>
<text x="452.0" y="1037.0" text-anchor="start" class="legend">VALU</text>
<rect x="680.000" y="1023.000" width="18.000" height="18.000" rx="2" fill="#c65d2e">
</rect>
<text x="707.0" y="1037.0" text-anchor="start" class="legend">barrier</text>
<rect x="935.000" y="1023.000" width="18.000" height="18.000" rx="2" fill="#aab0b6">
</rect>
<text x="962.0" y="1037.0" text-anchor="start" class="legend">other</text>
<text x="44.0" y="1092.0" text-anchor="start" class="note">注：no-issue原因按active wave阻塞PC等分归因；颜色面积用于比较规模，不代表单项可独立消除。</text>
<rect x="44.000" y="1130.000" width="1512.000" height="710.000" rx="5" fill="#f6f8fa" stroke="#cfd6dc" stroke-width="1">
</rect>
<text x="70.0" y="1167.0" text-anchor="start" class="explain-title">如何读图：每一行、每种颜色和一个具体ATT示例</text>
<text x="70.0" y="1202.0" text-anchor="start" class="explain-head">五条横条分别表示</text>
<text x="70.0" y="1230.0" text-anchor="start" class="explain">1  墙钟闭合：实测 = 完美模型 + shadow内/外归一残差 + ATT外边界。</text>
<text x="70.0" y="1256.0" text-anchor="start" class="explain">2  ATT物理时间线：S=MFMA shadow内，O=shadow外；六种状态互斥。</text>
<text x="70.0" y="1282.0" text-anchor="start" class="explain">3  MFMA逻辑shadow：64×12的理论容量；灰色alias不是独立物理机会。</text>
<text x="70.0" y="1308.0" text-anchor="start" class="explain">4/5 no-issue原因：按active wave当时阻塞的PC归因，是raw物理cycle。</text>
<line x1="790.000" y1="1188.000" x2="790.000" y2="1322.000" stroke="#cfd6dc" stroke-width="1"/>
<text x="820.0" y="1202.0" text-anchor="start" class="explain-head">状态颜色的含义</text>
<text x="820.0" y="1230.0" text-anchor="start" class="explain">深/浅绿 non-MFMA issue：分别表示shadow内/外有非MFMA工作发射。</text>
<text x="820.0" y="1256.0" text-anchor="start" class="explain">深/浅蓝 MFMA-only：分别表示shadow内/外只有MFMA工作发射。</text>
<text x="820.0" y="1282.0" text-anchor="start" class="explain">红/橙 no issue：分别表示shadow内/外整个物理SIMD没有指令发射。</text>
<text x="820.0" y="1308.0" text-anchor="start" class="explain">灰色  alias：两个resident wave的逻辑shadow重叠，只算一次物理时间。</text>
<text x="70.0" y="1354.0" text-anchor="start" class="explain-head">示例：两个MFMA如何形成hidden、MFMA-only、no-issue与alias</text>
<line x1="340.000" y1="1382.000" x2="340.000" y2="1447.000" stroke="#bec6cd" stroke-width="1"/>
<text x="340.0" y="1374.0" text-anchor="middle" class="axis">t=100</text>
<line x1="510.000" y1="1382.000" x2="510.000" y2="1447.000" stroke="#bec6cd" stroke-width="1"/>
<text x="510.0" y="1374.0" text-anchor="middle" class="axis">t=104</text>
<line x1="680.000" y1="1382.000" x2="680.000" y2="1447.000" stroke="#bec6cd" stroke-width="1"/>
<text x="680.0" y="1374.0" text-anchor="middle" class="axis">t=108</text>
<line x1="850.000" y1="1382.000" x2="850.000" y2="1447.000" stroke="#bec6cd" stroke-width="1"/>
<text x="850.0" y="1374.0" text-anchor="middle" class="axis">t=112</text>
<line x1="1020.000" y1="1382.000" x2="1020.000" y2="1447.000" stroke="#bec6cd" stroke-width="1"/>
<text x="1020.0" y="1374.0" text-anchor="middle" class="axis">t=116</text>
<line x1="1190.000" y1="1382.000" x2="1190.000" y2="1447.000" stroke="#bec6cd" stroke-width="1"/>
<text x="1190.0" y="1374.0" text-anchor="middle" class="axis">t=120</text>
<line x1="1360.000" y1="1382.000" x2="1360.000" y2="1447.000" stroke="#bec6cd" stroke-width="1"/>
<text x="1360.0" y="1374.0" text-anchor="middle" class="axis">t=124</text>
<rect x="340.000" y="1392.000" width="170.000" height="46.000" rx="2" fill="#315c9b">
<title>MFMA0 issue</title>
</rect>
<text x="425.0" y="1420.0" text-anchor="middle" class="example" fill="#ffffff">MFMA0 issue</text>
<rect x="510.000" y="1392.000" width="170.000" height="46.000" rx="2" fill="#167d75">
<title>S/non-MFMA: v_add</title>
</rect>
<text x="595.0" y="1420.0" text-anchor="middle" class="example" fill="#ffffff">v_add → S/non-MFMA</text>
<rect x="680.000" y="1392.000" width="170.000" height="46.000" rx="2" fill="#315c9b">
<title>S/MFMA-only: MFMA1</title>
</rect>
<text x="765.0" y="1420.0" text-anchor="middle" class="example" fill="#ffffff">MFMA1 → S/MFMA-only</text>
<rect x="850.000" y="1392.000" width="170.000" height="46.000" rx="2" fill="#b9445b">
<title>S/no-issue</title>
</rect>
<text x="935.0" y="1420.0" text-anchor="middle" class="example" fill="#ffffff">idle → S/no-issue</text>
<rect x="1020.000" y="1392.000" width="170.000" height="46.000" rx="2" fill="#167d75">
<title>S/non-MFMA: v_exp</title>
</rect>
<text x="1105.0" y="1420.0" text-anchor="middle" class="example" fill="#ffffff">v_exp → S/non-MFMA</text>
<rect x="1190.000" y="1392.000" width="170.000" height="46.000" rx="2" fill="#b9445b">
<title>S/no-issue</title>
</rect>
<text x="1275.0" y="1420.0" text-anchor="middle" class="example" fill="#ffffff">idle → S/no-issue</text>
<line x1="510.000" y1="1460.000" x2="1020.000" y2="1460.000" stroke="#315c9b" stroke-width="3"/>
<line x1="510.000" y1="1454.000" x2="510.000" y2="1466.000" stroke="#315c9b" stroke-width="3"/>
<line x1="1020.000" y1="1454.000" x2="1020.000" y2="1466.000" stroke="#315c9b" stroke-width="3"/>
<text x="765.0" y="1481.0" text-anchor="middle" class="axis">MFMA0 shadow [104,116)</text>
<line x1="850.000" y1="1500.000" x2="1360.000" y2="1500.000" stroke="#7f9cc2" stroke-width="3"/>
<line x1="850.000" y1="1494.000" x2="850.000" y2="1506.000" stroke="#7f9cc2" stroke-width="3"/>
<line x1="1360.000" y1="1494.000" x2="1360.000" y2="1506.000" stroke="#7f9cc2" stroke-width="3"/>
<text x="1105.0" y="1521.0" text-anchor="middle" class="axis">MFMA1 shadow [112,124)</text>
<rect x="850.000" y="1534.000" width="170.000" height="24.000" rx="2" fill="#9aa1a9">
<title>逻辑shadow重叠4 cycles</title>
</rect>
<text x="935.0" y="1551.0" text-anchor="middle" class="example" fill="#20262d">alias 4 cycles</text>
<text x="1038.0" y="1551.0" text-anchor="start" class="explain">[112,116)同时属于两个逻辑shadow，但物理时间线只计算一次。</text>
<text x="70.0" y="1590.0" text-anchor="start" class="explain-head">阻塞归因示例</text>
<text x="210.0" y="1590.0" text-anchor="start" class="explain">若一个4-cycle no-issue区间内，wave0阻塞在MFMA、wave1阻塞在s_waitcnt lgkmcnt(0)，</text>
<text x="210.0" y="1616.0" text-anchor="start" class="explain">则raw权重等分为MFMA 2 cycles + LDS/SMEM-wait 2 cycles；它不是两次墙钟时间。</text>
<line x1="70.000" y1="1646.000" x2="1530.000" y2="1646.000" stroke="#cfd6dc" stroke-width="1"/>
<text x="70.0" y="1680.0" text-anchor="start" class="explain-head">阻塞类别逐项含义</text>
<text x="70.0" y="1710.0" text-anchor="start" class="explain">MFMA：active wave停在MFMA PC，通常是accumulator RAW或MFMA pipeline依赖。</text>
<text x="70.0" y="1736.0" text-anchor="start" class="explain">TRANS：停在v_exp_f32/v_rcp_f32，表示超越函数结果或TRANS pipeline依赖。</text>
<text x="70.0" y="1762.0" text-anchor="start" class="explain">LDS wait：停在s_waitcnt lgkmcnt(...)；LDS/SMEM请求尚未满足。</text>
<text x="70.0" y="1788.0" text-anchor="start" class="explain">VMEM load：停在buffer_load；global/L2/HBM请求仍处于ATT duration。</text>
<text x="820.0" y="1710.0" text-anchor="start" class="explain">scheduler：上一条长duration已结束，但物理SIMD仍没有下一条issue。</text>
<text x="820.0" y="1736.0" text-anchor="start" class="explain">LDS/crosslane：停在ds_read/write/swizzle/bpermute等DS指令。</text>
<text x="820.0" y="1762.0" text-anchor="start" class="explain">VALU：停在普通vector ALU PC，通常是数据依赖或VALU pipeline空洞。</text>
<text x="820.0" y="1788.0" text-anchor="start" class="explain">barrier/other：wave到达差；以及少量SALU、store、wait和trace edge。</text>
</svg>
